<svg width="100" height="100" viewBox="0 0 100 100" fill="none" xmlns="http://www.w3.org/2000/svg">
<path d="M41.0833 8.33334C37.9228 8.33334 34.8918 9.58885 32.657 11.8237C30.4221 14.0585 29.1666 17.0895 29.1666 20.25V27.25H47.0416C48.6666 27.25 50 29.625 50 31.25H20.25C17.0895 31.25 14.0584 32.5055 11.8236 34.7403C9.58882 36.9751 8.33331 40.0062 8.33331 43.1667V58.9208C8.33331 62.0813 9.58882 65.1124 11.8236 67.3472C14.0584 69.582 17.0895 70.8375 20.25 70.8375H25.1666V59.6708C25.1612 58.1079 25.4643 56.5592 26.0586 55.1137C26.6529 53.6681 27.5267 52.3541 28.63 51.247C29.7332 50.1399 31.0442 49.2615 32.4876 48.6621C33.9311 48.0627 35.4787 47.7542 37.0416 47.7542H58.9166C65.5 47.7542 70.8333 42.4583 70.8333 35.875V20.25C70.8333 17.0895 69.5778 14.0585 67.343 11.8237C65.1082 9.58885 62.0771 8.33334 58.9166 8.33334H41.0833ZM38.0833 15.0417C39.75 15.0417 41.0833 15.5417 41.0833 18C41.0833 20.4583 39.75 21.7125 38.0833 21.7125C36.4583 21.7125 35.125 20.4625 35.125 18.0042C35.125 15.5458 36.4583 15.0417 38.0833 15.0417Z" fill="#0288D1"/>
<path d="M74.8292 29.1667V40.3333C74.8341 41.8959 74.5306 43.4441 73.936 44.8892C73.3415 46.3343 72.4676 47.6478 71.3644 48.7545C70.2612 49.8611 68.9504 50.7392 67.5072 51.3383C66.064 51.9374 64.5168 52.2458 62.9542 52.2458H41.0834C39.5204 52.2403 37.9717 52.5434 36.5262 53.1378C35.0806 53.7321 33.7666 54.6059 32.6595 55.7092C31.5524 56.8124 30.674 58.1233 30.0746 59.5668C29.4752 61.0103 29.1667 62.5579 29.1667 64.1208V79.7458C29.1667 82.9063 30.4222 85.9374 32.657 88.1722C34.8918 90.407 37.9229 91.6625 41.0834 91.6625H58.9167C62.0765 91.6625 65.1069 90.4076 67.3416 88.1736C69.5763 85.9397 70.8322 82.9098 70.8334 79.75V72.75H52.9542C51.3292 72.75 50 70.375 50 68.75H79.75C82.9105 68.75 85.9416 67.4945 88.1764 65.2597C90.4112 63.0249 91.6667 59.9938 91.6667 56.8333V41.0833C91.6667 37.9228 90.4112 34.8918 88.1764 32.657C85.9416 30.4222 82.9105 29.1667 79.75 29.1667H74.8292ZM34.6667 47.9708L34.65 47.9875L34.8084 47.9708H34.6667ZM61.9167 78.2875C63.5417 78.2875 64.875 79.5375 64.875 81.9958C64.875 82.3843 64.7985 82.769 64.6498 83.1279C64.5012 83.4868 64.2833 83.813 64.0085 84.0877C63.7338 84.3624 63.4077 84.5803 63.0488 84.729C62.6899 84.8776 62.3052 84.9542 61.9167 84.9542C60.25 84.9542 58.9167 84.4542 58.9167 81.9958C58.9167 79.5375 60.25 78.2875 61.9167 78.2875Z" fill="#FDD835"/>
</svg>
